<mxfile host="app.diagrams.net" modified="2023-11-14T21:42:48.935Z" agent="Mozilla/5.0 (Windows NT 10.0; Win64; x64) AppleWebKit/537.36 (KHTML, like Gecko) Chrome/119.0.0.0 Safari/537.36" etag="LkEaH2hf-hbGBldGy94j" version="22.1.1" type="google">
  <diagram id="cdb5e136-1861-7ef1-5e76-c57f7e18aa8d" name="ERD Data Structure - Habit Tracker App">
    <mxGraphModel grid="1" page="1" gridSize="10" guides="1" tooltips="1" connect="1" arrows="1" fold="1" pageScale="1" pageWidth="1100" pageHeight="850" math="0" shadow="0">
      <root>
        <mxCell id="0" />
        <mxCell id="1" parent="0" />
        <mxCell id="nR1Abh5m7N5ja9J4Jtff-20" value="" style="rounded=0;whiteSpace=wrap;html=1;" vertex="1" parent="1">
          <mxGeometry x="40" y="360" width="1090" height="40" as="geometry" />
        </mxCell>
        <mxCell id="nR1Abh5m7N5ja9J4Jtff-13" value="Address1" style="rounded=0;whiteSpace=wrap;html=1;" vertex="1" parent="1">
          <mxGeometry x="580" y="360" width="110" height="40" as="geometry" />
        </mxCell>
        <mxCell id="nR1Abh5m7N5ja9J4Jtff-14" value="Address2" style="rounded=0;whiteSpace=wrap;html=1;" vertex="1" parent="1">
          <mxGeometry x="690" y="360" width="110" height="40" as="geometry" />
        </mxCell>
        <mxCell id="nR1Abh5m7N5ja9J4Jtff-16" value="City" style="rounded=0;whiteSpace=wrap;html=1;" vertex="1" parent="1">
          <mxGeometry x="800" y="360" width="110" height="40" as="geometry" />
        </mxCell>
        <mxCell id="nR1Abh5m7N5ja9J4Jtff-17" value="State" style="rounded=0;whiteSpace=wrap;html=1;" vertex="1" parent="1">
          <mxGeometry x="910" y="360" width="110" height="40" as="geometry" />
        </mxCell>
        <mxCell id="nR1Abh5m7N5ja9J4Jtff-18" value="ZIP" style="rounded=0;whiteSpace=wrap;html=1;" vertex="1" parent="1">
          <mxGeometry x="1020" y="360" width="110" height="40" as="geometry" />
        </mxCell>
        <mxCell id="nR1Abh5m7N5ja9J4Jtff-22" value="AdminFirstName" style="rounded=0;whiteSpace=wrap;html=1;" vertex="1" parent="1">
          <mxGeometry x="150" y="360" width="100" height="40" as="geometry" />
        </mxCell>
        <mxCell id="nR1Abh5m7N5ja9J4Jtff-23" value="AdminLastName" style="rounded=0;whiteSpace=wrap;html=1;" vertex="1" parent="1">
          <mxGeometry x="250" y="360" width="110" height="40" as="geometry" />
        </mxCell>
        <mxCell id="nR1Abh5m7N5ja9J4Jtff-24" value="AdminMiddleInitial" style="rounded=0;whiteSpace=wrap;html=1;" vertex="1" parent="1">
          <mxGeometry x="360" y="360" width="110" height="40" as="geometry" />
        </mxCell>
        <mxCell id="nR1Abh5m7N5ja9J4Jtff-25" value="AdminSuffix" style="rounded=0;whiteSpace=wrap;html=1;" vertex="1" parent="1">
          <mxGeometry x="470" y="360" width="110" height="40" as="geometry" />
        </mxCell>
        <mxCell id="nR1Abh5m7N5ja9J4Jtff-7" value="Account" style="rounded=0;whiteSpace=wrap;html=1;" vertex="1" parent="1">
          <mxGeometry x="40" y="40" width="140" height="40" as="geometry" />
        </mxCell>
        <mxCell id="nR1Abh5m7N5ja9J4Jtff-9" value="" style="rounded=0;whiteSpace=wrap;html=1;" vertex="1" parent="1">
          <mxGeometry x="40" y="80" width="900" height="40" as="geometry" />
        </mxCell>
        <mxCell id="nR1Abh5m7N5ja9J4Jtff-10" value="&lt;u&gt;Account_id&lt;/u&gt;" style="rounded=0;whiteSpace=wrap;html=1;" vertex="1" parent="1">
          <mxGeometry x="40" y="80" width="140" height="40" as="geometry" />
        </mxCell>
        <mxCell id="nR1Abh5m7N5ja9J4Jtff-11" value="AccountName" style="rounded=0;whiteSpace=wrap;html=1;" vertex="1" parent="1">
          <mxGeometry x="285" y="80" width="100" height="40" as="geometry" />
        </mxCell>
        <mxCell id="nR1Abh5m7N5ja9J4Jtff-12" value="AccountName2" style="rounded=0;whiteSpace=wrap;html=1;" vertex="1" parent="1">
          <mxGeometry x="385" y="80" width="110" height="40" as="geometry" />
        </mxCell>
        <mxCell id="nR1Abh5m7N5ja9J4Jtff-19" value="AcctAdmin" style="rounded=0;whiteSpace=wrap;html=1;" vertex="1" parent="1">
          <mxGeometry x="40" y="320" width="110" height="40" as="geometry" />
        </mxCell>
        <mxCell id="nR1Abh5m7N5ja9J4Jtff-21" value="&lt;u&gt;AcctAdmin_id&lt;/u&gt;" style="rounded=0;whiteSpace=wrap;html=1;" vertex="1" parent="1">
          <mxGeometry x="40" y="360" width="110" height="40" as="geometry" />
        </mxCell>
        <mxCell id="nR1Abh5m7N5ja9J4Jtff-29" value="Address1" style="rounded=0;whiteSpace=wrap;html=1;" vertex="1" parent="1">
          <mxGeometry x="495" y="80" width="110" height="40" as="geometry" />
        </mxCell>
        <mxCell id="nR1Abh5m7N5ja9J4Jtff-30" value="Address2" style="rounded=0;whiteSpace=wrap;html=1;" vertex="1" parent="1">
          <mxGeometry x="605" y="80" width="110" height="40" as="geometry" />
        </mxCell>
        <mxCell id="nR1Abh5m7N5ja9J4Jtff-31" value="City" style="rounded=0;whiteSpace=wrap;html=1;" vertex="1" parent="1">
          <mxGeometry x="715" y="80" width="110" height="40" as="geometry" />
        </mxCell>
        <mxCell id="nR1Abh5m7N5ja9J4Jtff-32" value="State" style="rounded=0;whiteSpace=wrap;html=1;" vertex="1" parent="1">
          <mxGeometry x="825" y="80" width="110" height="40" as="geometry" />
        </mxCell>
        <mxCell id="nR1Abh5m7N5ja9J4Jtff-33" value="ZIP" style="rounded=0;whiteSpace=wrap;html=1;" vertex="1" parent="1">
          <mxGeometry x="935" y="80" width="110" height="40" as="geometry" />
        </mxCell>
        <mxCell id="nR1Abh5m7N5ja9J4Jtff-34" value="" style="rounded=0;whiteSpace=wrap;html=1;" vertex="1" parent="1">
          <mxGeometry x="40" y="490" width="870" height="40" as="geometry" />
        </mxCell>
        <mxCell id="nR1Abh5m7N5ja9J4Jtff-35" value="Address1" style="rounded=0;whiteSpace=wrap;html=1;" vertex="1" parent="1">
          <mxGeometry x="360" y="490" width="110" height="40" as="geometry" />
        </mxCell>
        <mxCell id="nR1Abh5m7N5ja9J4Jtff-36" value="Address2" style="rounded=0;whiteSpace=wrap;html=1;" vertex="1" parent="1">
          <mxGeometry x="470" y="490" width="110" height="40" as="geometry" />
        </mxCell>
        <mxCell id="nR1Abh5m7N5ja9J4Jtff-37" value="City" style="rounded=0;whiteSpace=wrap;html=1;" vertex="1" parent="1">
          <mxGeometry x="580" y="490" width="110" height="40" as="geometry" />
        </mxCell>
        <mxCell id="nR1Abh5m7N5ja9J4Jtff-38" value="State" style="rounded=0;whiteSpace=wrap;html=1;" vertex="1" parent="1">
          <mxGeometry x="690" y="490" width="110" height="40" as="geometry" />
        </mxCell>
        <mxCell id="nR1Abh5m7N5ja9J4Jtff-39" value="ZIP" style="rounded=0;whiteSpace=wrap;html=1;" vertex="1" parent="1">
          <mxGeometry x="800" y="490" width="110" height="40" as="geometry" />
        </mxCell>
        <mxCell id="nR1Abh5m7N5ja9J4Jtff-40" value="BAcctName" style="rounded=0;whiteSpace=wrap;html=1;" vertex="1" parent="1">
          <mxGeometry x="150" y="490" width="100" height="40" as="geometry" />
        </mxCell>
        <mxCell id="nR1Abh5m7N5ja9J4Jtff-41" value="BAcctName2" style="rounded=0;whiteSpace=wrap;html=1;" vertex="1" parent="1">
          <mxGeometry x="250" y="490" width="110" height="40" as="geometry" />
        </mxCell>
        <mxCell id="nR1Abh5m7N5ja9J4Jtff-44" value="BillingAccount" style="rounded=0;whiteSpace=wrap;html=1;" vertex="1" parent="1">
          <mxGeometry x="40" y="450" width="110" height="40" as="geometry" />
        </mxCell>
        <mxCell id="nR1Abh5m7N5ja9J4Jtff-45" value="&lt;u&gt;BillingAccount_id&lt;/u&gt;" style="rounded=0;whiteSpace=wrap;html=1;" vertex="1" parent="1">
          <mxGeometry x="40" y="490" width="110" height="40" as="geometry" />
        </mxCell>
        <mxCell id="nR1Abh5m7N5ja9J4Jtff-46" value="" style="rounded=0;whiteSpace=wrap;html=1;" vertex="1" parent="1">
          <mxGeometry x="40" y="640" width="320" height="40" as="geometry" />
        </mxCell>
        <mxCell id="nR1Abh5m7N5ja9J4Jtff-243" style="edgeStyle=orthogonalEdgeStyle;rounded=0;orthogonalLoop=1;jettySize=auto;html=1;exitX=0.5;exitY=1;exitDx=0;exitDy=0;entryX=0.75;entryY=1;entryDx=0;entryDy=0;" edge="1" parent="1" source="nR1Abh5m7N5ja9J4Jtff-52" target="nR1Abh5m7N5ja9J4Jtff-10">
          <mxGeometry relative="1" as="geometry">
            <Array as="points">
              <mxPoint x="200" y="700" />
              <mxPoint x="-20" y="700" />
              <mxPoint x="-20" y="170" />
              <mxPoint x="145" y="170" />
            </Array>
          </mxGeometry>
        </mxCell>
        <mxCell id="nR1Abh5m7N5ja9J4Jtff-52" value="&lt;u&gt;Account_id&lt;/u&gt;" style="rounded=0;whiteSpace=wrap;html=1;" vertex="1" parent="1">
          <mxGeometry x="150" y="640" width="100" height="40" as="geometry" />
        </mxCell>
        <mxCell id="nR1Abh5m7N5ja9J4Jtff-53" value="StartDate" style="rounded=0;whiteSpace=wrap;html=1;" vertex="1" parent="1">
          <mxGeometry x="250" y="640" width="110" height="40" as="geometry" />
        </mxCell>
        <mxCell id="nR1Abh5m7N5ja9J4Jtff-56" value="Account_Member" style="rounded=0;whiteSpace=wrap;html=1;" vertex="1" parent="1">
          <mxGeometry x="40" y="600" width="110" height="40" as="geometry" />
        </mxCell>
        <mxCell id="nR1Abh5m7N5ja9J4Jtff-242" style="edgeStyle=orthogonalEdgeStyle;rounded=0;orthogonalLoop=1;jettySize=auto;html=1;exitX=0;exitY=0.5;exitDx=0;exitDy=0;entryX=0;entryY=0.5;entryDx=0;entryDy=0;" edge="1" parent="1" source="nR1Abh5m7N5ja9J4Jtff-57" target="nR1Abh5m7N5ja9J4Jtff-157">
          <mxGeometry relative="1" as="geometry">
            <Array as="points">
              <mxPoint x="-80" y="660" />
              <mxPoint x="-80" y="2030" />
            </Array>
          </mxGeometry>
        </mxCell>
        <mxCell id="nR1Abh5m7N5ja9J4Jtff-57" value="&lt;u&gt;Customer_id&lt;/u&gt;" style="rounded=0;whiteSpace=wrap;html=1;" vertex="1" parent="1">
          <mxGeometry x="40" y="640" width="110" height="40" as="geometry" />
        </mxCell>
        <mxCell id="nR1Abh5m7N5ja9J4Jtff-60" value="" style="rounded=0;whiteSpace=wrap;html=1;" vertex="1" parent="1">
          <mxGeometry x="40" y="790" width="1090" height="40" as="geometry" />
        </mxCell>
        <mxCell id="nR1Abh5m7N5ja9J4Jtff-61" value="Address1" style="rounded=0;whiteSpace=wrap;html=1;" vertex="1" parent="1">
          <mxGeometry x="580" y="790" width="110" height="40" as="geometry" />
        </mxCell>
        <mxCell id="nR1Abh5m7N5ja9J4Jtff-62" value="Address2" style="rounded=0;whiteSpace=wrap;html=1;" vertex="1" parent="1">
          <mxGeometry x="690" y="790" width="110" height="40" as="geometry" />
        </mxCell>
        <mxCell id="nR1Abh5m7N5ja9J4Jtff-63" value="City" style="rounded=0;whiteSpace=wrap;html=1;" vertex="1" parent="1">
          <mxGeometry x="800" y="790" width="110" height="40" as="geometry" />
        </mxCell>
        <mxCell id="nR1Abh5m7N5ja9J4Jtff-64" value="State" style="rounded=0;whiteSpace=wrap;html=1;" vertex="1" parent="1">
          <mxGeometry x="910" y="790" width="110" height="40" as="geometry" />
        </mxCell>
        <mxCell id="nR1Abh5m7N5ja9J4Jtff-65" value="ZIP" style="rounded=0;whiteSpace=wrap;html=1;" vertex="1" parent="1">
          <mxGeometry x="1020" y="790" width="110" height="40" as="geometry" />
        </mxCell>
        <mxCell id="nR1Abh5m7N5ja9J4Jtff-173" style="edgeStyle=orthogonalEdgeStyle;rounded=0;orthogonalLoop=1;jettySize=auto;html=1;exitX=0.5;exitY=1;exitDx=0;exitDy=0;entryX=0;entryY=0.75;entryDx=0;entryDy=0;" edge="1" parent="1" source="nR1Abh5m7N5ja9J4Jtff-66" target="nR1Abh5m7N5ja9J4Jtff-10">
          <mxGeometry relative="1" as="geometry">
            <Array as="points">
              <mxPoint x="200" y="850" />
              <mxPoint y="850" />
              <mxPoint y="110" />
            </Array>
          </mxGeometry>
        </mxCell>
        <mxCell id="nR1Abh5m7N5ja9J4Jtff-66" value="Account_id" style="rounded=0;whiteSpace=wrap;html=1;" vertex="1" parent="1">
          <mxGeometry x="150" y="790" width="100" height="40" as="geometry" />
        </mxCell>
        <mxCell id="nR1Abh5m7N5ja9J4Jtff-67" value="AliasName" style="rounded=0;whiteSpace=wrap;html=1;" vertex="1" parent="1">
          <mxGeometry x="250" y="790" width="110" height="40" as="geometry" />
        </mxCell>
        <mxCell id="nR1Abh5m7N5ja9J4Jtff-68" value="AliasSource" style="rounded=0;whiteSpace=wrap;html=1;" vertex="1" parent="1">
          <mxGeometry x="360" y="790" width="110" height="40" as="geometry" />
        </mxCell>
        <mxCell id="dRAoSfNGCD5ei4OuSDqa-1" style="edgeStyle=orthogonalEdgeStyle;rounded=0;orthogonalLoop=1;jettySize=auto;html=1;exitX=0.5;exitY=1;exitDx=0;exitDy=0;entryX=0.75;entryY=1;entryDx=0;entryDy=0;" edge="1" parent="1" source="nR1Abh5m7N5ja9J4Jtff-69" target="nR1Abh5m7N5ja9J4Jtff-85">
          <mxGeometry relative="1" as="geometry" />
        </mxCell>
        <mxCell id="nR1Abh5m7N5ja9J4Jtff-69" value="CompanyCode" style="rounded=0;whiteSpace=wrap;html=1;" vertex="1" parent="1">
          <mxGeometry x="470" y="790" width="110" height="40" as="geometry" />
        </mxCell>
        <mxCell id="nR1Abh5m7N5ja9J4Jtff-70" value="AccountLegacyAlias" style="rounded=0;whiteSpace=wrap;html=1;" vertex="1" parent="1">
          <mxGeometry x="40" y="750" width="110" height="40" as="geometry" />
        </mxCell>
        <mxCell id="nR1Abh5m7N5ja9J4Jtff-71" value="&lt;u&gt;AliasID&lt;/u&gt;" style="rounded=0;whiteSpace=wrap;html=1;" vertex="1" parent="1">
          <mxGeometry x="40" y="790" width="110" height="40" as="geometry" />
        </mxCell>
        <mxCell id="nR1Abh5m7N5ja9J4Jtff-74" value="" style="rounded=0;whiteSpace=wrap;html=1;" vertex="1" parent="1">
          <mxGeometry x="40" y="970" width="350" height="40" as="geometry" />
        </mxCell>
        <mxCell id="nR1Abh5m7N5ja9J4Jtff-80" value="LegacyCompanyNo" style="rounded=0;whiteSpace=wrap;html=1;" vertex="1" parent="1">
          <mxGeometry x="150" y="970" width="130" height="40" as="geometry" />
        </mxCell>
        <mxCell id="nR1Abh5m7N5ja9J4Jtff-81" value="CompanyName" style="rounded=0;whiteSpace=wrap;html=1;" vertex="1" parent="1">
          <mxGeometry x="280" y="970" width="110" height="40" as="geometry" />
        </mxCell>
        <mxCell id="nR1Abh5m7N5ja9J4Jtff-84" value="CompanyCode" style="rounded=0;whiteSpace=wrap;html=1;" vertex="1" parent="1">
          <mxGeometry x="40" y="930" width="110" height="40" as="geometry" />
        </mxCell>
        <mxCell id="nR1Abh5m7N5ja9J4Jtff-85" value="&lt;u&gt;CompanyCode&lt;/u&gt;" style="rounded=0;whiteSpace=wrap;html=1;" vertex="1" parent="1">
          <mxGeometry x="40" y="970" width="110" height="40" as="geometry" />
        </mxCell>
        <mxCell id="nR1Abh5m7N5ja9J4Jtff-86" value="" style="rounded=0;whiteSpace=wrap;html=1;" vertex="1" parent="1">
          <mxGeometry x="40" y="1110" width="760" height="40" as="geometry" />
        </mxCell>
        <mxCell id="nR1Abh5m7N5ja9J4Jtff-87" value="Duration" style="rounded=0;whiteSpace=wrap;html=1;" vertex="1" parent="1">
          <mxGeometry x="580" y="1110" width="110" height="40" as="geometry" />
        </mxCell>
        <mxCell id="nR1Abh5m7N5ja9J4Jtff-88" value="ExpirationDate" style="rounded=0;whiteSpace=wrap;html=1;" vertex="1" parent="1">
          <mxGeometry x="690" y="1110" width="110" height="40" as="geometry" />
        </mxCell>
        <mxCell id="nR1Abh5m7N5ja9J4Jtff-92" value="ActivityStatus" style="rounded=0;whiteSpace=wrap;html=1;" vertex="1" parent="1">
          <mxGeometry x="150" y="1110" width="100" height="40" as="geometry" />
        </mxCell>
        <mxCell id="nR1Abh5m7N5ja9J4Jtff-93" value="ActivityStatusDate" style="rounded=0;whiteSpace=wrap;html=1;" vertex="1" parent="1">
          <mxGeometry x="250" y="1110" width="110" height="40" as="geometry" />
        </mxCell>
        <mxCell id="nR1Abh5m7N5ja9J4Jtff-94" value="CoverageType" style="rounded=0;whiteSpace=wrap;html=1;" vertex="1" parent="1">
          <mxGeometry x="360" y="1110" width="110" height="40" as="geometry" />
        </mxCell>
        <mxCell id="nR1Abh5m7N5ja9J4Jtff-95" value="BillingMethod" style="rounded=0;whiteSpace=wrap;html=1;" vertex="1" parent="1">
          <mxGeometry x="470" y="1110" width="110" height="40" as="geometry" />
        </mxCell>
        <mxCell id="nR1Abh5m7N5ja9J4Jtff-96" value="Contract" style="rounded=0;whiteSpace=wrap;html=1;" vertex="1" parent="1">
          <mxGeometry x="40" y="1070" width="110" height="40" as="geometry" />
        </mxCell>
        <mxCell id="nR1Abh5m7N5ja9J4Jtff-97" value="&lt;u&gt;ContractNumber&lt;/u&gt;" style="rounded=0;whiteSpace=wrap;html=1;" vertex="1" parent="1">
          <mxGeometry x="40" y="1110" width="110" height="40" as="geometry" />
        </mxCell>
        <mxCell id="nR1Abh5m7N5ja9J4Jtff-98" value="" style="rounded=0;whiteSpace=wrap;html=1;" vertex="1" parent="1">
          <mxGeometry x="40" y="1250" width="250" height="40" as="geometry" />
        </mxCell>
        <mxCell id="nR1Abh5m7N5ja9J4Jtff-104" value="PolicyCountContribution" style="rounded=0;whiteSpace=wrap;html=1;" vertex="1" parent="1">
          <mxGeometry x="150" y="1250" width="140" height="40" as="geometry" />
        </mxCell>
        <mxCell id="nR1Abh5m7N5ja9J4Jtff-108" value="ContractBenefit" style="rounded=0;whiteSpace=wrap;html=1;" vertex="1" parent="1">
          <mxGeometry x="40" y="1210" width="110" height="40" as="geometry" />
        </mxCell>
        <mxCell id="nR1Abh5m7N5ja9J4Jtff-109" value="&lt;u&gt;ContractBenefit_id&lt;/u&gt;" style="rounded=0;whiteSpace=wrap;html=1;" vertex="1" parent="1">
          <mxGeometry x="40" y="1250" width="110" height="40" as="geometry" />
        </mxCell>
        <mxCell id="nR1Abh5m7N5ja9J4Jtff-110" value="" style="rounded=0;whiteSpace=wrap;html=1;" vertex="1" parent="1">
          <mxGeometry x="40" y="1400" width="450" height="40" as="geometry" />
        </mxCell>
        <mxCell id="nR1Abh5m7N5ja9J4Jtff-116" value="AnnualizedPremium" style="rounded=0;whiteSpace=wrap;html=1;" vertex="1" parent="1">
          <mxGeometry x="150" y="1400" width="120" height="40" as="geometry" />
        </mxCell>
        <mxCell id="nR1Abh5m7N5ja9J4Jtff-117" value="ProcessDate" style="rounded=0;whiteSpace=wrap;html=1;" vertex="1" parent="1">
          <mxGeometry x="270" y="1400" width="110" height="40" as="geometry" />
        </mxCell>
        <mxCell id="nR1Abh5m7N5ja9J4Jtff-118" value="AppSignDate" style="rounded=0;whiteSpace=wrap;html=1;" vertex="1" parent="1">
          <mxGeometry x="380" y="1400" width="110" height="40" as="geometry" />
        </mxCell>
        <mxCell id="nR1Abh5m7N5ja9J4Jtff-120" value="ContractPremium" style="rounded=0;whiteSpace=wrap;html=1;" vertex="1" parent="1">
          <mxGeometry x="40" y="1360" width="110" height="40" as="geometry" />
        </mxCell>
        <mxCell id="nR1Abh5m7N5ja9J4Jtff-121" value="&lt;u&gt;PremiumCode&lt;/u&gt;" style="rounded=0;whiteSpace=wrap;html=1;" vertex="1" parent="1">
          <mxGeometry x="40" y="1400" width="110" height="40" as="geometry" />
        </mxCell>
        <mxCell id="nR1Abh5m7N5ja9J4Jtff-122" value="" style="rounded=0;whiteSpace=wrap;html=1;" vertex="1" parent="1">
          <mxGeometry x="40" y="1700" width="680" height="40" as="geometry" />
        </mxCell>
        <mxCell id="nR1Abh5m7N5ja9J4Jtff-123" value="EndDate" style="rounded=0;whiteSpace=wrap;html=1;" vertex="1" parent="1">
          <mxGeometry x="610" y="1700" width="110" height="40" as="geometry" />
        </mxCell>
        <mxCell id="nR1Abh5m7N5ja9J4Jtff-128" value="IssueDate" style="rounded=0;whiteSpace=wrap;html=1;" vertex="1" parent="1">
          <mxGeometry x="150" y="1700" width="100" height="40" as="geometry" />
        </mxCell>
        <mxCell id="nR1Abh5m7N5ja9J4Jtff-129" value="ContractType" style="rounded=0;whiteSpace=wrap;html=1;" vertex="1" parent="1">
          <mxGeometry x="250" y="1700" width="110" height="40" as="geometry" />
        </mxCell>
        <mxCell id="nR1Abh5m7N5ja9J4Jtff-130" value="ContractSignDate" style="rounded=0;whiteSpace=wrap;html=1;" vertex="1" parent="1">
          <mxGeometry x="360" y="1700" width="110" height="40" as="geometry" />
        </mxCell>
        <mxCell id="nR1Abh5m7N5ja9J4Jtff-131" value="ContractProcessDate" style="rounded=0;whiteSpace=wrap;html=1;" vertex="1" parent="1">
          <mxGeometry x="470" y="1700" width="140" height="40" as="geometry" />
        </mxCell>
        <mxCell id="nR1Abh5m7N5ja9J4Jtff-132" value="ManagerContract" style="rounded=0;whiteSpace=wrap;html=1;" vertex="1" parent="1">
          <mxGeometry x="40" y="1660" width="110" height="40" as="geometry" />
        </mxCell>
        <mxCell id="nR1Abh5m7N5ja9J4Jtff-133" value="&lt;u&gt;SitCode&lt;/u&gt;" style="rounded=0;whiteSpace=wrap;html=1;" vertex="1" parent="1">
          <mxGeometry x="40" y="1700" width="110" height="40" as="geometry" />
        </mxCell>
        <mxCell id="nR1Abh5m7N5ja9J4Jtff-134" value="" style="rounded=0;whiteSpace=wrap;html=1;" vertex="1" parent="1">
          <mxGeometry x="40" y="1870" width="760" height="40" as="geometry" />
        </mxCell>
        <mxCell id="nR1Abh5m7N5ja9J4Jtff-135" value="AssocDOB" style="rounded=0;whiteSpace=wrap;html=1;" vertex="1" parent="1">
          <mxGeometry x="580" y="1870" width="110" height="40" as="geometry" />
        </mxCell>
        <mxCell id="nR1Abh5m7N5ja9J4Jtff-136" value="TenureDate" style="rounded=0;whiteSpace=wrap;html=1;" vertex="1" parent="1">
          <mxGeometry x="690" y="1870" width="110" height="40" as="geometry" />
        </mxCell>
        <mxCell id="nR1Abh5m7N5ja9J4Jtff-140" value="AssocFirstName" style="rounded=0;whiteSpace=wrap;html=1;" vertex="1" parent="1">
          <mxGeometry x="150" y="1870" width="100" height="40" as="geometry" />
        </mxCell>
        <mxCell id="nR1Abh5m7N5ja9J4Jtff-141" value="AssocLastName" style="rounded=0;whiteSpace=wrap;html=1;" vertex="1" parent="1">
          <mxGeometry x="250" y="1870" width="110" height="40" as="geometry" />
        </mxCell>
        <mxCell id="nR1Abh5m7N5ja9J4Jtff-142" value="AssocMiddleInitial" style="rounded=0;whiteSpace=wrap;html=1;" vertex="1" parent="1">
          <mxGeometry x="360" y="1870" width="110" height="40" as="geometry" />
        </mxCell>
        <mxCell id="nR1Abh5m7N5ja9J4Jtff-143" value="AssocSuffix" style="rounded=0;whiteSpace=wrap;html=1;" vertex="1" parent="1">
          <mxGeometry x="470" y="1870" width="110" height="40" as="geometry" />
        </mxCell>
        <mxCell id="nR1Abh5m7N5ja9J4Jtff-144" value="Associate" style="rounded=0;whiteSpace=wrap;html=1;" vertex="1" parent="1">
          <mxGeometry x="40" y="1830" width="110" height="40" as="geometry" />
        </mxCell>
        <mxCell id="nR1Abh5m7N5ja9J4Jtff-145" value="&lt;u&gt;Associate_id&lt;/u&gt;" style="rounded=0;whiteSpace=wrap;html=1;" vertex="1" parent="1">
          <mxGeometry x="40" y="1870" width="110" height="40" as="geometry" />
        </mxCell>
        <mxCell id="nR1Abh5m7N5ja9J4Jtff-146" value="" style="rounded=0;whiteSpace=wrap;html=1;" vertex="1" parent="1">
          <mxGeometry x="40" y="2010" width="760" height="40" as="geometry" />
        </mxCell>
        <mxCell id="nR1Abh5m7N5ja9J4Jtff-147" value="Gender" style="rounded=0;whiteSpace=wrap;html=1;" vertex="1" parent="1">
          <mxGeometry x="580" y="2010" width="110" height="40" as="geometry" />
        </mxCell>
        <mxCell id="nR1Abh5m7N5ja9J4Jtff-148" value="SSN_TIN" style="rounded=0;whiteSpace=wrap;html=1;" vertex="1" parent="1">
          <mxGeometry x="690" y="2010" width="110" height="40" as="geometry" />
        </mxCell>
        <mxCell id="nR1Abh5m7N5ja9J4Jtff-152" value="CusFirstName" style="rounded=0;whiteSpace=wrap;html=1;" vertex="1" parent="1">
          <mxGeometry x="150" y="2010" width="100" height="40" as="geometry" />
        </mxCell>
        <mxCell id="nR1Abh5m7N5ja9J4Jtff-153" value="CusLastName" style="rounded=0;whiteSpace=wrap;html=1;" vertex="1" parent="1">
          <mxGeometry x="250" y="2010" width="110" height="40" as="geometry" />
        </mxCell>
        <mxCell id="nR1Abh5m7N5ja9J4Jtff-154" value="CusMiddleInitial" style="rounded=0;whiteSpace=wrap;html=1;" vertex="1" parent="1">
          <mxGeometry x="360" y="2010" width="110" height="40" as="geometry" />
        </mxCell>
        <mxCell id="nR1Abh5m7N5ja9J4Jtff-155" value="CusDOB" style="rounded=0;whiteSpace=wrap;html=1;" vertex="1" parent="1">
          <mxGeometry x="470" y="2010" width="110" height="40" as="geometry" />
        </mxCell>
        <mxCell id="nR1Abh5m7N5ja9J4Jtff-156" value="Customer" style="rounded=0;whiteSpace=wrap;html=1;" vertex="1" parent="1">
          <mxGeometry x="40" y="1970" width="110" height="40" as="geometry" />
        </mxCell>
        <mxCell id="nR1Abh5m7N5ja9J4Jtff-157" value="&lt;u&gt;Customer_id&lt;/u&gt;" style="rounded=0;whiteSpace=wrap;html=1;" vertex="1" parent="1">
          <mxGeometry x="40" y="2010" width="110" height="40" as="geometry" />
        </mxCell>
        <mxCell id="nR1Abh5m7N5ja9J4Jtff-158" value="Acct_AcctAdmin" style="rounded=0;whiteSpace=wrap;html=1;" vertex="1" parent="1">
          <mxGeometry x="40" y="180" width="140" height="40" as="geometry" />
        </mxCell>
        <mxCell id="nR1Abh5m7N5ja9J4Jtff-161" style="edgeStyle=orthogonalEdgeStyle;rounded=0;orthogonalLoop=1;jettySize=auto;html=1;exitX=0.5;exitY=1;exitDx=0;exitDy=0;entryX=0;entryY=0.25;entryDx=0;entryDy=0;" edge="1" parent="1" source="nR1Abh5m7N5ja9J4Jtff-159" target="nR1Abh5m7N5ja9J4Jtff-21">
          <mxGeometry relative="1" as="geometry">
            <Array as="points">
              <mxPoint x="110" y="290" />
              <mxPoint x="20" y="290" />
              <mxPoint x="20" y="370" />
            </Array>
          </mxGeometry>
        </mxCell>
        <mxCell id="nR1Abh5m7N5ja9J4Jtff-159" value="&lt;u&gt;AcctAdmin_id&lt;/u&gt;" style="rounded=0;whiteSpace=wrap;html=1;" vertex="1" parent="1">
          <mxGeometry x="40" y="220" width="140" height="40" as="geometry" />
        </mxCell>
        <mxCell id="nR1Abh5m7N5ja9J4Jtff-160" value="&lt;u&gt;Account_id&lt;/u&gt;" style="rounded=0;whiteSpace=wrap;html=1;" vertex="1" parent="1">
          <mxGeometry x="180" y="220" width="100" height="40" as="geometry" />
        </mxCell>
        <mxCell id="nR1Abh5m7N5ja9J4Jtff-165" value="Account-Account" style="rounded=0;whiteSpace=wrap;html=1;" vertex="1" parent="1">
          <mxGeometry x="-330" y="40" width="140" height="40" as="geometry" />
        </mxCell>
        <mxCell id="nR1Abh5m7N5ja9J4Jtff-166" value="&lt;u style=&quot;border-color: var(--border-color);&quot;&gt;Master_id&lt;/u&gt;" style="rounded=0;whiteSpace=wrap;html=1;" vertex="1" parent="1">
          <mxGeometry x="-330" y="80" width="140" height="40" as="geometry" />
        </mxCell>
        <mxCell id="nR1Abh5m7N5ja9J4Jtff-172" style="edgeStyle=orthogonalEdgeStyle;rounded=0;orthogonalLoop=1;jettySize=auto;html=1;entryX=0;entryY=0.25;entryDx=0;entryDy=0;exitX=1;exitY=0.25;exitDx=0;exitDy=0;" edge="1" parent="1" source="nR1Abh5m7N5ja9J4Jtff-167" target="nR1Abh5m7N5ja9J4Jtff-10">
          <mxGeometry relative="1" as="geometry">
            <mxPoint x="-90" y="100" as="sourcePoint" />
          </mxGeometry>
        </mxCell>
        <mxCell id="nR1Abh5m7N5ja9J4Jtff-167" value="&lt;u&gt;Member_id&lt;/u&gt;" style="rounded=0;whiteSpace=wrap;html=1;" vertex="1" parent="1">
          <mxGeometry x="-190" y="80" width="100" height="40" as="geometry" />
        </mxCell>
        <mxCell id="nR1Abh5m7N5ja9J4Jtff-169" style="edgeStyle=orthogonalEdgeStyle;rounded=0;orthogonalLoop=1;jettySize=auto;html=1;exitX=0.5;exitY=0;exitDx=0;exitDy=0;entryX=0.875;entryY=1.004;entryDx=0;entryDy=0;entryPerimeter=0;" edge="1" parent="1" source="nR1Abh5m7N5ja9J4Jtff-160" target="nR1Abh5m7N5ja9J4Jtff-10">
          <mxGeometry relative="1" as="geometry" />
        </mxCell>
        <mxCell id="nR1Abh5m7N5ja9J4Jtff-170" style="edgeStyle=orthogonalEdgeStyle;rounded=0;orthogonalLoop=1;jettySize=auto;html=1;exitX=0.25;exitY=1;exitDx=0;exitDy=0;" edge="1" parent="1" source="nR1Abh5m7N5ja9J4Jtff-166">
          <mxGeometry relative="1" as="geometry">
            <mxPoint x="40" y="100" as="targetPoint" />
            <Array as="points">
              <mxPoint x="-295" y="130" />
              <mxPoint x="-75" y="130" />
              <mxPoint x="-75" y="100" />
            </Array>
          </mxGeometry>
        </mxCell>
        <mxCell id="nR1Abh5m7N5ja9J4Jtff-175" style="edgeStyle=orthogonalEdgeStyle;rounded=0;orthogonalLoop=1;jettySize=auto;html=1;exitX=0.5;exitY=1;exitDx=0;exitDy=0;entryX=0.25;entryY=1;entryDx=0;entryDy=0;" edge="1" parent="1" target="nR1Abh5m7N5ja9J4Jtff-85">
          <mxGeometry relative="1" as="geometry">
            <mxPoint x="235" y="110" as="sourcePoint" />
            <mxPoint x="70" y="1020" as="targetPoint" />
            <Array as="points">
              <mxPoint x="235" y="160" />
              <mxPoint x="10" y="160" />
              <mxPoint x="10" y="1030" />
              <mxPoint x="68" y="1030" />
            </Array>
          </mxGeometry>
        </mxCell>
        <mxCell id="nR1Abh5m7N5ja9J4Jtff-174" value="CompanyCode" style="rounded=0;whiteSpace=wrap;html=1;" vertex="1" parent="1">
          <mxGeometry x="180" y="80" width="110" height="40" as="geometry" />
        </mxCell>
        <mxCell id="nR1Abh5m7N5ja9J4Jtff-176" value="CompanyCode" style="rounded=0;whiteSpace=wrap;html=1;" vertex="1" parent="1">
          <mxGeometry x="800" y="1110" width="110" height="40" as="geometry" />
        </mxCell>
        <mxCell id="nR1Abh5m7N5ja9J4Jtff-177" style="edgeStyle=orthogonalEdgeStyle;rounded=0;orthogonalLoop=1;jettySize=auto;html=1;exitX=0.5;exitY=0;exitDx=0;exitDy=0;entryX=0.426;entryY=1.015;entryDx=0;entryDy=0;entryPerimeter=0;" edge="1" parent="1" source="nR1Abh5m7N5ja9J4Jtff-176" target="nR1Abh5m7N5ja9J4Jtff-85">
          <mxGeometry relative="1" as="geometry">
            <Array as="points">
              <mxPoint x="855" y="1040" />
              <mxPoint x="87" y="1040" />
            </Array>
          </mxGeometry>
        </mxCell>
        <mxCell id="nR1Abh5m7N5ja9J4Jtff-179" style="edgeStyle=orthogonalEdgeStyle;rounded=0;orthogonalLoop=1;jettySize=auto;html=1;exitX=0.5;exitY=0;exitDx=0;exitDy=0;entryX=0.5;entryY=1;entryDx=0;entryDy=0;" edge="1" parent="1" source="nR1Abh5m7N5ja9J4Jtff-178" target="nR1Abh5m7N5ja9J4Jtff-97">
          <mxGeometry relative="1" as="geometry">
            <Array as="points">
              <mxPoint x="345" y="1190" />
              <mxPoint x="95" y="1190" />
            </Array>
          </mxGeometry>
        </mxCell>
        <mxCell id="nR1Abh5m7N5ja9J4Jtff-178" value="ContractNumber" style="rounded=0;whiteSpace=wrap;html=1;" vertex="1" parent="1">
          <mxGeometry x="290" y="1250" width="110" height="40" as="geometry" />
        </mxCell>
        <mxCell id="nR1Abh5m7N5ja9J4Jtff-181" style="edgeStyle=orthogonalEdgeStyle;rounded=0;orthogonalLoop=1;jettySize=auto;html=1;exitX=0.5;exitY=0;exitDx=0;exitDy=0;entryX=0.5;entryY=1;entryDx=0;entryDy=0;" edge="1" parent="1" source="nR1Abh5m7N5ja9J4Jtff-180" target="nR1Abh5m7N5ja9J4Jtff-109">
          <mxGeometry relative="1" as="geometry">
            <Array as="points">
              <mxPoint x="545" y="1340" />
              <mxPoint x="95" y="1340" />
            </Array>
          </mxGeometry>
        </mxCell>
        <mxCell id="nR1Abh5m7N5ja9J4Jtff-180" value="ContractBenefit_id" style="rounded=0;whiteSpace=wrap;html=1;" vertex="1" parent="1">
          <mxGeometry x="490" y="1400" width="110" height="40" as="geometry" />
        </mxCell>
        <mxCell id="nR1Abh5m7N5ja9J4Jtff-182" value="Premium_MgmtContract" style="rounded=0;whiteSpace=wrap;html=1;" vertex="1" parent="1">
          <mxGeometry x="40" y="1500" width="140" height="40" as="geometry" />
        </mxCell>
        <mxCell id="nR1Abh5m7N5ja9J4Jtff-185" style="edgeStyle=orthogonalEdgeStyle;rounded=0;orthogonalLoop=1;jettySize=auto;html=1;exitX=0;exitY=0.5;exitDx=0;exitDy=0;entryX=0.25;entryY=1;entryDx=0;entryDy=0;" edge="1" parent="1" source="nR1Abh5m7N5ja9J4Jtff-183" target="nR1Abh5m7N5ja9J4Jtff-121">
          <mxGeometry relative="1" as="geometry" />
        </mxCell>
        <mxCell id="nR1Abh5m7N5ja9J4Jtff-183" value="&lt;u style=&quot;border-color: var(--border-color);&quot;&gt;PremiumCode&lt;/u&gt;" style="rounded=0;whiteSpace=wrap;html=1;" vertex="1" parent="1">
          <mxGeometry x="40" y="1540" width="140" height="40" as="geometry" />
        </mxCell>
        <mxCell id="nR1Abh5m7N5ja9J4Jtff-186" style="edgeStyle=orthogonalEdgeStyle;rounded=0;orthogonalLoop=1;jettySize=auto;html=1;exitX=0.5;exitY=1;exitDx=0;exitDy=0;entryX=0;entryY=0.5;entryDx=0;entryDy=0;" edge="1" parent="1" source="nR1Abh5m7N5ja9J4Jtff-184" target="nR1Abh5m7N5ja9J4Jtff-133">
          <mxGeometry relative="1" as="geometry">
            <Array as="points">
              <mxPoint x="230" y="1630" />
              <mxPoint x="20" y="1630" />
              <mxPoint x="20" y="1720" />
            </Array>
          </mxGeometry>
        </mxCell>
        <mxCell id="nR1Abh5m7N5ja9J4Jtff-184" value="&lt;span style=&quot;border-color: var(--border-color);&quot;&gt;&lt;u&gt;SitCode&lt;/u&gt;&lt;/span&gt;" style="rounded=0;whiteSpace=wrap;html=1;" vertex="1" parent="1">
          <mxGeometry x="180" y="1540" width="100" height="40" as="geometry" />
        </mxCell>
        <mxCell id="nR1Abh5m7N5ja9J4Jtff-187" value="Amount" style="rounded=0;whiteSpace=wrap;html=1;" vertex="1" parent="1">
          <mxGeometry x="280" y="1540" width="110" height="40" as="geometry" />
        </mxCell>
        <mxCell id="nR1Abh5m7N5ja9J4Jtff-188" value="CommissionRate" style="rounded=0;whiteSpace=wrap;html=1;" vertex="1" parent="1">
          <mxGeometry x="390" y="1540" width="110" height="40" as="geometry" />
        </mxCell>
        <mxCell id="nR1Abh5m7N5ja9J4Jtff-189" value="Account_BillingAccount" style="rounded=0;whiteSpace=wrap;html=1;" vertex="1" parent="1">
          <mxGeometry x="-880" y="280" width="140" height="40" as="geometry" />
        </mxCell>
        <mxCell id="nR1Abh5m7N5ja9J4Jtff-195" style="edgeStyle=orthogonalEdgeStyle;rounded=0;orthogonalLoop=1;jettySize=auto;html=1;exitX=0;exitY=0.5;exitDx=0;exitDy=0;entryX=0.5;entryY=1;entryDx=0;entryDy=0;" edge="1" parent="1" source="nR1Abh5m7N5ja9J4Jtff-190" target="nR1Abh5m7N5ja9J4Jtff-10">
          <mxGeometry relative="1" as="geometry">
            <Array as="points">
              <mxPoint x="-900" y="340" />
              <mxPoint x="-900" y="150" />
              <mxPoint x="110" y="150" />
            </Array>
          </mxGeometry>
        </mxCell>
        <mxCell id="nR1Abh5m7N5ja9J4Jtff-190" value="&lt;u style=&quot;border-color: var(--border-color);&quot;&gt;Account_id&lt;/u&gt;" style="rounded=0;whiteSpace=wrap;html=1;" vertex="1" parent="1">
          <mxGeometry x="-880" y="320" width="140" height="40" as="geometry" />
        </mxCell>
        <mxCell id="nR1Abh5m7N5ja9J4Jtff-196" style="edgeStyle=orthogonalEdgeStyle;rounded=0;orthogonalLoop=1;jettySize=auto;html=1;exitX=0.5;exitY=1;exitDx=0;exitDy=0;entryX=0;entryY=0.5;entryDx=0;entryDy=0;" edge="1" parent="1" source="nR1Abh5m7N5ja9J4Jtff-191" target="nR1Abh5m7N5ja9J4Jtff-45">
          <mxGeometry relative="1" as="geometry" />
        </mxCell>
        <mxCell id="nR1Abh5m7N5ja9J4Jtff-191" value="&lt;u style=&quot;border-color: var(--border-color);&quot;&gt;BillingAccount_id&lt;/u&gt;" style="rounded=0;whiteSpace=wrap;html=1;" vertex="1" parent="1">
          <mxGeometry x="-740" y="320" width="100" height="40" as="geometry" />
        </mxCell>
        <mxCell id="nR1Abh5m7N5ja9J4Jtff-192" value="&lt;span style=&quot;border-color: var(--border-color);&quot;&gt;RelationshipType&lt;/span&gt;" style="rounded=0;whiteSpace=wrap;html=1;" vertex="1" parent="1">
          <mxGeometry x="-640" y="320" width="140" height="40" as="geometry" />
        </mxCell>
        <mxCell id="nR1Abh5m7N5ja9J4Jtff-193" value="&lt;span style=&quot;border-color: var(--border-color);&quot;&gt;StartDate&lt;/span&gt;" style="rounded=0;whiteSpace=wrap;html=1;" vertex="1" parent="1">
          <mxGeometry x="-500" y="320" width="100" height="40" as="geometry" />
        </mxCell>
        <mxCell id="nR1Abh5m7N5ja9J4Jtff-194" value="&lt;span style=&quot;border-color: var(--border-color);&quot;&gt;BillingFrequency&lt;/span&gt;" style="rounded=0;whiteSpace=wrap;html=1;" vertex="1" parent="1">
          <mxGeometry x="-400" y="320" width="120" height="40" as="geometry" />
        </mxCell>
        <mxCell id="nR1Abh5m7N5ja9J4Jtff-197" value="&lt;span style=&quot;border-color: var(--border-color);&quot;&gt;SpecificationCode&lt;/span&gt;" style="rounded=0;whiteSpace=wrap;html=1;" vertex="1" parent="1">
          <mxGeometry x="-280" y="320" width="100" height="40" as="geometry" />
        </mxCell>
        <mxCell id="nR1Abh5m7N5ja9J4Jtff-198" value="&lt;span style=&quot;border-color: var(--border-color);&quot;&gt;AccountType&lt;/span&gt;" style="rounded=0;whiteSpace=wrap;html=1;" vertex="1" parent="1">
          <mxGeometry x="-180" y="320" width="120" height="40" as="geometry" />
        </mxCell>
        <mxCell id="nR1Abh5m7N5ja9J4Jtff-199" value="Account_Associate" style="rounded=0;whiteSpace=wrap;html=1;" vertex="1" parent="1">
          <mxGeometry x="-670" y="1660" width="140" height="40" as="geometry" />
        </mxCell>
        <mxCell id="nR1Abh5m7N5ja9J4Jtff-205" style="edgeStyle=orthogonalEdgeStyle;rounded=0;orthogonalLoop=1;jettySize=auto;html=1;exitX=0.5;exitY=1;exitDx=0;exitDy=0;entryX=0.25;entryY=1;entryDx=0;entryDy=0;" edge="1" parent="1">
          <mxGeometry relative="1" as="geometry">
            <mxPoint x="-597.52" y="1740" as="sourcePoint" />
            <mxPoint x="77.48" y="120" as="targetPoint" />
            <Array as="points">
              <mxPoint x="-598" y="1780" />
              <mxPoint x="-38" y="1780" />
              <mxPoint x="-38" y="140" />
              <mxPoint x="78" y="140" />
            </Array>
          </mxGeometry>
        </mxCell>
        <mxCell id="nR1Abh5m7N5ja9J4Jtff-200" value="&lt;u style=&quot;border-color: var(--border-color);&quot;&gt;Account_id&lt;/u&gt;" style="rounded=0;whiteSpace=wrap;html=1;" vertex="1" parent="1">
          <mxGeometry x="-670" y="1700" width="140" height="40" as="geometry" />
        </mxCell>
        <mxCell id="nR1Abh5m7N5ja9J4Jtff-204" style="edgeStyle=orthogonalEdgeStyle;rounded=0;orthogonalLoop=1;jettySize=auto;html=1;exitX=0.5;exitY=1;exitDx=0;exitDy=0;entryX=0.5;entryY=1;entryDx=0;entryDy=0;" edge="1" parent="1" source="nR1Abh5m7N5ja9J4Jtff-201" target="nR1Abh5m7N5ja9J4Jtff-133">
          <mxGeometry relative="1" as="geometry" />
        </mxCell>
        <mxCell id="nR1Abh5m7N5ja9J4Jtff-201" value="&lt;u style=&quot;border-color: var(--border-color);&quot;&gt;SitCode&lt;/u&gt;" style="rounded=0;whiteSpace=wrap;html=1;" vertex="1" parent="1">
          <mxGeometry x="-530" y="1700" width="100" height="40" as="geometry" />
        </mxCell>
        <mxCell id="nR1Abh5m7N5ja9J4Jtff-202" value="&lt;span style=&quot;border-color: var(--border-color);&quot;&gt;StartDate&lt;/span&gt;" style="rounded=0;whiteSpace=wrap;html=1;" vertex="1" parent="1">
          <mxGeometry x="-430" y="1700" width="140" height="40" as="geometry" />
        </mxCell>
        <mxCell id="nR1Abh5m7N5ja9J4Jtff-203" value="&lt;span style=&quot;border-color: var(--border-color);&quot;&gt;StopDate&lt;/span&gt;" style="rounded=0;whiteSpace=wrap;html=1;" vertex="1" parent="1">
          <mxGeometry x="-290" y="1700" width="100" height="40" as="geometry" />
        </mxCell>
        <mxCell id="nR1Abh5m7N5ja9J4Jtff-207" style="edgeStyle=orthogonalEdgeStyle;rounded=0;orthogonalLoop=1;jettySize=auto;html=1;exitX=0.5;exitY=1;exitDx=0;exitDy=0;entryX=0;entryY=0.5;entryDx=0;entryDy=0;" edge="1" parent="1" source="nR1Abh5m7N5ja9J4Jtff-206" target="nR1Abh5m7N5ja9J4Jtff-145">
          <mxGeometry relative="1" as="geometry" />
        </mxCell>
        <mxCell id="nR1Abh5m7N5ja9J4Jtff-206" value="Associate_id" style="rounded=0;whiteSpace=wrap;html=1;" vertex="1" parent="1">
          <mxGeometry x="720" y="1700" width="110" height="40" as="geometry" />
        </mxCell>
        <mxCell id="nR1Abh5m7N5ja9J4Jtff-208" value="StateCoordinators_EndDate" style="rounded=0;whiteSpace=wrap;html=1;" vertex="1" parent="1">
          <mxGeometry x="830" y="1700" width="200" height="40" as="geometry" />
        </mxCell>
        <mxCell id="nR1Abh5m7N5ja9J4Jtff-213" style="edgeStyle=orthogonalEdgeStyle;rounded=0;orthogonalLoop=1;jettySize=auto;html=1;exitX=1;exitY=0.75;exitDx=0;exitDy=0;entryX=0;entryY=0.75;entryDx=0;entryDy=0;" edge="1" parent="1" source="nR1Abh5m7N5ja9J4Jtff-209" target="nR1Abh5m7N5ja9J4Jtff-145">
          <mxGeometry relative="1" as="geometry" />
        </mxCell>
        <mxCell id="nR1Abh5m7N5ja9J4Jtff-209" value="&lt;u style=&quot;border-color: var(--border-color);&quot;&gt;Broker_id&lt;/u&gt;" style="rounded=0;whiteSpace=wrap;html=1;" vertex="1" parent="1">
          <mxGeometry x="-310" y="1870" width="100" height="40" as="geometry" />
        </mxCell>
        <mxCell id="nR1Abh5m7N5ja9J4Jtff-210" value="Associate-Associate" style="rounded=0;whiteSpace=wrap;html=1;" vertex="1" parent="1">
          <mxGeometry x="-430" y="1830" width="120" height="40" as="geometry" />
        </mxCell>
        <mxCell id="nR1Abh5m7N5ja9J4Jtff-212" style="edgeStyle=orthogonalEdgeStyle;rounded=0;orthogonalLoop=1;jettySize=auto;html=1;exitX=0.5;exitY=1;exitDx=0;exitDy=0;entryX=0.5;entryY=1;entryDx=0;entryDy=0;" edge="1" parent="1" source="nR1Abh5m7N5ja9J4Jtff-211" target="nR1Abh5m7N5ja9J4Jtff-145">
          <mxGeometry relative="1" as="geometry" />
        </mxCell>
        <mxCell id="nR1Abh5m7N5ja9J4Jtff-211" value="&lt;u&gt;Recruiter_id&lt;/u&gt;" style="rounded=0;whiteSpace=wrap;html=1;" vertex="1" parent="1">
          <mxGeometry x="-430" y="1870" width="120" height="40" as="geometry" />
        </mxCell>
        <mxCell id="nR1Abh5m7N5ja9J4Jtff-214" value="" style="rounded=0;whiteSpace=wrap;html=1;" vertex="1" parent="1">
          <mxGeometry x="-815" y="2240" width="760" height="40" as="geometry" />
        </mxCell>
        <mxCell id="nR1Abh5m7N5ja9J4Jtff-215" value="ContractSignDate" style="rounded=0;whiteSpace=wrap;html=1;" vertex="1" parent="1">
          <mxGeometry x="-210" y="2240" width="110" height="40" as="geometry" />
        </mxCell>
        <mxCell id="nR1Abh5m7N5ja9J4Jtff-216" value="ContractProcessDate" style="rounded=0;whiteSpace=wrap;html=1;" vertex="1" parent="1">
          <mxGeometry x="-100" y="2240" width="135" height="40" as="geometry" />
        </mxCell>
        <mxCell id="nR1Abh5m7N5ja9J4Jtff-241" style="edgeStyle=orthogonalEdgeStyle;rounded=0;orthogonalLoop=1;jettySize=auto;html=1;exitX=0.75;exitY=0;exitDx=0;exitDy=0;entryX=0.75;entryY=1;entryDx=0;entryDy=0;" edge="1" parent="1" source="nR1Abh5m7N5ja9J4Jtff-217" target="nR1Abh5m7N5ja9J4Jtff-145">
          <mxGeometry relative="1" as="geometry">
            <Array as="points">
              <mxPoint x="-570" y="1950" />
              <mxPoint x="122" y="1950" />
            </Array>
          </mxGeometry>
        </mxCell>
        <mxCell id="nR1Abh5m7N5ja9J4Jtff-217" value="&lt;u&gt;Associate_id&lt;/u&gt;" style="rounded=0;whiteSpace=wrap;html=1;" vertex="1" parent="1">
          <mxGeometry x="-675" y="2240" width="140" height="40" as="geometry" />
        </mxCell>
        <mxCell id="nR1Abh5m7N5ja9J4Jtff-218" value="SitCode" style="rounded=0;whiteSpace=wrap;html=1;" vertex="1" parent="1">
          <mxGeometry x="-540" y="2240" width="110" height="40" as="geometry" />
        </mxCell>
        <mxCell id="nR1Abh5m7N5ja9J4Jtff-219" value="IssueDate" style="rounded=0;whiteSpace=wrap;html=1;" vertex="1" parent="1">
          <mxGeometry x="-430" y="2240" width="110" height="40" as="geometry" />
        </mxCell>
        <mxCell id="nR1Abh5m7N5ja9J4Jtff-220" value="ContractType" style="rounded=0;whiteSpace=wrap;html=1;" vertex="1" parent="1">
          <mxGeometry x="-320" y="2240" width="110" height="40" as="geometry" />
        </mxCell>
        <mxCell id="nR1Abh5m7N5ja9J4Jtff-221" value="CoordPosition_ProductionAsset" style="rounded=0;whiteSpace=wrap;html=1;" vertex="1" parent="1">
          <mxGeometry x="-815" y="2200" width="190" height="40" as="geometry" />
        </mxCell>
        <mxCell id="nR1Abh5m7N5ja9J4Jtff-226" style="edgeStyle=orthogonalEdgeStyle;rounded=0;orthogonalLoop=1;jettySize=auto;html=1;exitX=0;exitY=0.25;exitDx=0;exitDy=0;entryX=0;entryY=0.5;entryDx=0;entryDy=0;" edge="1" parent="1" source="nR1Abh5m7N5ja9J4Jtff-222" target="nR1Abh5m7N5ja9J4Jtff-121">
          <mxGeometry relative="1" as="geometry" />
        </mxCell>
        <mxCell id="nR1Abh5m7N5ja9J4Jtff-222" value="&lt;u&gt;PremiumCode&lt;/u&gt;" style="rounded=0;whiteSpace=wrap;html=1;" vertex="1" parent="1">
          <mxGeometry x="-815" y="2240" width="140" height="40" as="geometry" />
        </mxCell>
        <mxCell id="nR1Abh5m7N5ja9J4Jtff-230" value="TerritoryName" style="rounded=0;whiteSpace=wrap;html=1;" vertex="1" parent="1">
          <mxGeometry x="495" y="2240" width="110" height="40" as="geometry" />
        </mxCell>
        <mxCell id="nR1Abh5m7N5ja9J4Jtff-231" value="TerritoryStartDate" style="rounded=0;whiteSpace=wrap;html=1;" vertex="1" parent="1">
          <mxGeometry x="605" y="2240" width="110" height="40" as="geometry" />
        </mxCell>
        <mxCell id="nR1Abh5m7N5ja9J4Jtff-232" value="ManagerContractEndDate" style="rounded=0;whiteSpace=wrap;html=1;" vertex="1" parent="1">
          <mxGeometry x="35" y="2240" width="160" height="40" as="geometry" />
        </mxCell>
        <mxCell id="nR1Abh5m7N5ja9J4Jtff-233" value="ProductionCreditSplitPercentage" style="rounded=0;whiteSpace=wrap;html=1;" vertex="1" parent="1">
          <mxGeometry x="195" y="2240" width="190" height="40" as="geometry" />
        </mxCell>
        <mxCell id="nR1Abh5m7N5ja9J4Jtff-234" value="EndDate" style="rounded=0;whiteSpace=wrap;html=1;" vertex="1" parent="1">
          <mxGeometry x="385" y="2240" width="110" height="40" as="geometry" />
        </mxCell>
        <mxCell id="nR1Abh5m7N5ja9J4Jtff-235" value="TerritoryEndDate" style="rounded=0;whiteSpace=wrap;html=1;" vertex="1" parent="1">
          <mxGeometry x="715" y="2240" width="110" height="40" as="geometry" />
        </mxCell>
        <mxCell id="nR1Abh5m7N5ja9J4Jtff-236" value="TerritoryCoordinatorEndDate" style="rounded=0;whiteSpace=wrap;html=1;" vertex="1" parent="1">
          <mxGeometry x="825" y="2240" width="180" height="40" as="geometry" />
        </mxCell>
        <mxCell id="nR1Abh5m7N5ja9J4Jtff-237" value="Level" style="rounded=0;whiteSpace=wrap;html=1;" vertex="1" parent="1">
          <mxGeometry x="1005" y="2240" width="100" height="40" as="geometry" />
        </mxCell>
        <mxCell id="nR1Abh5m7N5ja9J4Jtff-238" value="LevelName" style="rounded=0;whiteSpace=wrap;html=1;" vertex="1" parent="1">
          <mxGeometry x="1105" y="2240" width="100" height="40" as="geometry" />
        </mxCell>
        <mxCell id="nR1Abh5m7N5ja9J4Jtff-239" value="LevelAbbreviation" style="rounded=0;whiteSpace=wrap;html=1;" vertex="1" parent="1">
          <mxGeometry x="1205" y="2240" width="100" height="40" as="geometry" />
        </mxCell>
        <mxCell id="nR1Abh5m7N5ja9J4Jtff-240" value="StateCoordinatorsEndDate" style="rounded=0;whiteSpace=wrap;html=1;" vertex="1" parent="1">
          <mxGeometry x="1305" y="2240" width="180" height="40" as="geometry" />
        </mxCell>
        <mxCell id="nR1Abh5m7N5ja9J4Jtff-248" style="edgeStyle=orthogonalEdgeStyle;rounded=0;orthogonalLoop=1;jettySize=auto;html=1;exitX=1;exitY=0.5;exitDx=0;exitDy=0;entryX=0.75;entryY=1;entryDx=0;entryDy=0;" edge="1" parent="1" source="nR1Abh5m7N5ja9J4Jtff-244" target="nR1Abh5m7N5ja9J4Jtff-157">
          <mxGeometry relative="1" as="geometry">
            <Array as="points">
              <mxPoint x="280" y="2160" />
              <mxPoint x="280" y="2080" />
              <mxPoint x="122" y="2080" />
            </Array>
          </mxGeometry>
        </mxCell>
        <mxCell id="nR1Abh5m7N5ja9J4Jtff-244" value="&lt;u style=&quot;border-color: var(--border-color);&quot;&gt;Customer_id2&lt;/u&gt;" style="rounded=0;whiteSpace=wrap;html=1;" vertex="1" parent="1">
          <mxGeometry x="160" y="2140" width="100" height="40" as="geometry" />
        </mxCell>
        <mxCell id="nR1Abh5m7N5ja9J4Jtff-245" value="Customer-Customer" style="rounded=0;whiteSpace=wrap;html=1;" vertex="1" parent="1">
          <mxGeometry x="40" y="2100" width="120" height="40" as="geometry" />
        </mxCell>
        <mxCell id="nR1Abh5m7N5ja9J4Jtff-247" style="edgeStyle=orthogonalEdgeStyle;rounded=0;orthogonalLoop=1;jettySize=auto;html=1;exitX=0;exitY=0.5;exitDx=0;exitDy=0;entryX=0.25;entryY=1;entryDx=0;entryDy=0;" edge="1" parent="1" source="nR1Abh5m7N5ja9J4Jtff-246" target="nR1Abh5m7N5ja9J4Jtff-157">
          <mxGeometry relative="1" as="geometry">
            <Array as="points">
              <mxPoint x="20" y="2160" />
              <mxPoint x="20" y="2080" />
              <mxPoint x="67" y="2080" />
            </Array>
          </mxGeometry>
        </mxCell>
        <mxCell id="nR1Abh5m7N5ja9J4Jtff-246" value="&lt;u&gt;Customer_id1&lt;/u&gt;" style="rounded=0;whiteSpace=wrap;html=1;" vertex="1" parent="1">
          <mxGeometry x="40" y="2140" width="120" height="40" as="geometry" />
        </mxCell>
        <mxCell id="nR1Abh5m7N5ja9J4Jtff-253" style="edgeStyle=orthogonalEdgeStyle;rounded=0;orthogonalLoop=1;jettySize=auto;html=1;exitX=0.75;exitY=0;exitDx=0;exitDy=0;entryX=0;entryY=0.75;entryDx=0;entryDy=0;" edge="1" parent="1" source="nR1Abh5m7N5ja9J4Jtff-249" target="nR1Abh5m7N5ja9J4Jtff-121">
          <mxGeometry relative="1" as="geometry" />
        </mxCell>
        <mxCell id="nR1Abh5m7N5ja9J4Jtff-249" value="&lt;u style=&quot;border-color: var(--border-color);&quot;&gt;PremiumCode&lt;/u&gt;" style="rounded=0;whiteSpace=wrap;html=1;" vertex="1" parent="1">
          <mxGeometry x="-250" y="2080" width="100" height="40" as="geometry" />
        </mxCell>
        <mxCell id="nR1Abh5m7N5ja9J4Jtff-250" value="BenefitForBenefitingParty" style="rounded=0;whiteSpace=wrap;html=1;" vertex="1" parent="1">
          <mxGeometry x="-420" y="2040" width="170" height="40" as="geometry" />
        </mxCell>
        <mxCell id="nR1Abh5m7N5ja9J4Jtff-252" style="edgeStyle=orthogonalEdgeStyle;rounded=0;orthogonalLoop=1;jettySize=auto;html=1;exitX=0.5;exitY=1;exitDx=0;exitDy=0;entryX=0;entryY=0.75;entryDx=0;entryDy=0;" edge="1" parent="1" source="nR1Abh5m7N5ja9J4Jtff-251" target="nR1Abh5m7N5ja9J4Jtff-157">
          <mxGeometry relative="1" as="geometry" />
        </mxCell>
        <mxCell id="nR1Abh5m7N5ja9J4Jtff-251" value="&lt;u&gt;Customer_id&lt;/u&gt;" style="rounded=0;whiteSpace=wrap;html=1;" vertex="1" parent="1">
          <mxGeometry x="-420" y="2080" width="170" height="40" as="geometry" />
        </mxCell>
        <mxCell id="nR1Abh5m7N5ja9J4Jtff-257" style="edgeStyle=orthogonalEdgeStyle;rounded=0;orthogonalLoop=1;jettySize=auto;html=1;exitX=1;exitY=0.5;exitDx=0;exitDy=0;entryX=0;entryY=0.5;entryDx=0;entryDy=0;" edge="1" parent="1" source="nR1Abh5m7N5ja9J4Jtff-254" target="nR1Abh5m7N5ja9J4Jtff-97">
          <mxGeometry relative="1" as="geometry" />
        </mxCell>
        <mxCell id="nR1Abh5m7N5ja9J4Jtff-254" value="&lt;u style=&quot;border-color: var(--border-color);&quot;&gt;ContractNumber&lt;/u&gt;" style="rounded=0;whiteSpace=wrap;html=1;" vertex="1" parent="1">
          <mxGeometry x="-250" y="1110" width="100" height="40" as="geometry" />
        </mxCell>
        <mxCell id="nR1Abh5m7N5ja9J4Jtff-255" value="ContractingPartyInRole" style="rounded=0;whiteSpace=wrap;html=1;" vertex="1" parent="1">
          <mxGeometry x="-420" y="1070" width="170" height="40" as="geometry" />
        </mxCell>
        <mxCell id="nR1Abh5m7N5ja9J4Jtff-258" style="edgeStyle=orthogonalEdgeStyle;rounded=0;orthogonalLoop=1;jettySize=auto;html=1;exitX=0.75;exitY=1;exitDx=0;exitDy=0;entryX=0;entryY=0.25;entryDx=0;entryDy=0;" edge="1" parent="1" source="nR1Abh5m7N5ja9J4Jtff-256" target="nR1Abh5m7N5ja9J4Jtff-157">
          <mxGeometry relative="1" as="geometry">
            <Array as="points">
              <mxPoint x="-292" y="1220" />
              <mxPoint x="-160" y="1220" />
              <mxPoint x="-160" y="2020" />
            </Array>
          </mxGeometry>
        </mxCell>
        <mxCell id="nR1Abh5m7N5ja9J4Jtff-256" value="&lt;u&gt;Customer_id&lt;/u&gt;" style="rounded=0;whiteSpace=wrap;html=1;" vertex="1" parent="1">
          <mxGeometry x="-420" y="1110" width="170" height="40" as="geometry" />
        </mxCell>
        <mxCell id="IyRbYjUP5vE1GP4AA6h--1" value="Photo" style="rounded=0;whiteSpace=wrap;html=1;" vertex="1" parent="1">
          <mxGeometry x="1045" y="80" width="110" height="40" as="geometry" />
        </mxCell>
      </root>
    </mxGraphModel>
  </diagram>
</mxfile>
